<svg width="24" height="7" viewBox="0 0 24 7" fill="none" xmlns="http://www.w3.org/2000/svg">
<path d="M17.445 0.286717C16.8865 0.0946766 16.2967 -0.00215574 15.7028 0.000670476C13.785 0.000670476 12.4298 0.922297 12.4215 2.24125C12.4058 3.21067 13.3822 3.75708 14.1202 4.08379C14.8785 4.41834 15.132 4.62664 15.1283 4.92338C15.1245 5.38063 14.5223 5.58464 13.968 5.58464C13.1978 5.58464 12.78 5.48478 12.1357 5.22798L11.8965 5.12026L11.6235 6.64394C12.0922 6.82584 12.9323 6.98563 13.7992 7.00061C15.8422 7.00061 17.1742 6.08683 17.1893 4.678C17.205 3.90546 16.6822 3.3191 15.5685 2.83546C14.8965 2.52373 14.4757 2.31116 14.4757 1.99158C14.4757 1.7091 14.835 1.41236 15.585 1.41236C16.0827 1.4005 16.5776 1.48773 17.0378 1.66844L17.2215 1.7462L17.4907 0.278871L17.445 0.286717ZM22.4303 0.126931H20.9303C20.4615 0.126931 20.1135 0.246057 19.9065 0.688324L17.0235 6.9036H19.0627L19.4738 5.88567L21.9615 5.88924C22.0238 6.12678 22.1993 6.90288 22.1993 6.90288H24L22.4303 0.126931ZM9.66 0.0712905H11.6017L10.3868 6.85081H8.445L9.66 0.0677237V0.0712905ZM4.72275 3.80488L4.9215 4.74862L6.8235 0.126931H8.88225L5.81925 6.89218H3.7695L2.0895 1.1634C2.07663 1.11582 2.0537 1.07122 2.02211 1.03235C1.99051 0.993467 1.95092 0.96112 1.90575 0.937277C1.30229 0.638753 0.662121 0.412793 0 0.264604L0.02325 0.122651H3.156C3.57825 0.137631 3.92175 0.264604 4.03875 0.695457L4.72275 3.80844V3.80488ZM20.0272 4.49966L20.805 2.60148C20.793 2.61932 20.9648 2.21129 21.0623 1.95449L21.195 2.53728L21.645 4.49538H20.0272V4.49966Z" fill="white"/>
</svg>
