<svg width="14" height="14" viewBox="0 0 14 14" fill="none" xmlns="http://www.w3.org/2000/svg">
<path d="M3.13008 1.07751C1.42531 1.07751 0 2.50336 0 4.20759V9.79413C0 11.4978 1.42585 12.9237 3.13008 12.9237H10.8705C12.5742 12.9237 14 11.4978 14 9.79359V4.20759C14 2.5039 12.5742 1.07751 10.8699 1.07751H3.13008ZM3.13008 2.15444H10.8705C11.9662 2.15444 12.9231 3.11128 12.9231 4.20759V4.84674H9.69231C9.39346 4.84674 9.15385 4.60713 9.15385 4.30828C9.15385 4.00944 9.39346 3.76982 9.69231 3.76982C9.83512 3.76982 9.97208 3.71309 10.0731 3.61211C10.174 3.51113 10.2308 3.37417 10.2308 3.23136C10.2308 3.08855 10.174 2.95159 10.0731 2.85061C9.97208 2.74963 9.83512 2.6929 9.69231 2.6929C8.80654 2.6929 8.07692 3.42251 8.07692 4.30828C8.07692 5.00398 8.53139 5.59736 9.15385 5.82298V8.49805C8.50877 8.93636 8.07692 9.6719 8.07692 10.5006C8.07692 10.9976 8.23469 11.4596 8.49746 11.8467H5.50308C5.77527 11.4505 5.92164 10.9813 5.92308 10.5006C5.92308 9.67244 5.49123 8.93636 4.84615 8.49805V5.82244C5.46862 5.59736 5.92308 5.00398 5.92308 4.30828C5.92308 3.42251 5.19346 2.6929 4.30769 2.6929H3.23077C3.21391 2.69211 3.19702 2.69211 3.18015 2.6929C3.16347 2.69212 3.14676 2.69212 3.13008 2.6929C2.98727 2.70625 2.85561 2.77579 2.76407 2.88621C2.67253 2.99663 2.62861 3.1389 2.64196 3.28171C2.65531 3.42452 2.72485 3.55617 2.83527 3.64771C2.9457 3.73925 3.08796 3.78317 3.23077 3.76982H4.30769C4.60654 3.76982 4.84615 4.00944 4.84615 4.30828C4.84615 4.60713 4.60654 4.84674 4.30769 4.84674H1.07692V4.20705C1.07692 3.11128 2.03377 2.15444 3.13008 2.15444ZM1.07692 5.92367H3.76923V8.07751H1.07692V5.92367ZM10.2308 5.92367H12.9231V8.07751H10.2308V5.92367ZM1.07692 9.15444H3.5C4.221 9.15444 4.84615 9.77959 4.84615 10.5006C4.84615 11.2216 4.221 11.8467 3.5 11.8467H3.12954C2.03377 11.8467 1.07692 10.8899 1.07692 9.79359V9.15444ZM10.5 9.15444H12.9231V9.79413C12.9231 10.8899 11.9662 11.8467 10.8699 11.8467H10.5C9.779 11.8467 9.15385 11.2216 9.15385 10.5006C9.15385 9.77959 9.779 9.15444 10.5 9.15444Z" fill="white"/>
</svg>
